<svg width="23" height="25" viewBox="0 0 23 25" fill="none" xmlns="http://www.w3.org/2000/svg">
<path fill-rule="evenodd" clip-rule="evenodd" d="M11.6811 2.21197C11.3193 1.92934 10.8116 1.92934 10.4498 2.21197L2.38436 8.51308C2.14178 8.70259 2 8.99327 2 9.30111V19.2028C2 19.9441 2.29312 20.6559 2.81628 21.1814C3.3396 21.707 4.05032 22.0032 4.79233 22.0032H17.3386C18.0806 22.0032 18.7913 21.707 19.3147 21.1814C19.8378 20.6559 20.1309 19.9441 20.1309 19.2028V9.30111C20.1309 8.99327 19.9892 8.70259 19.7466 8.51308L11.6811 2.21197ZM4 19.2028V9.78885L11.0655 4.26899L18.1309 9.78885V19.2028C18.1309 19.4165 18.0464 19.6206 17.8973 19.7703C17.7484 19.9199 17.5473 20.0032 17.3386 20.0032H14.7542V11.7764C14.7542 11.2241 14.3065 10.7764 13.7542 10.7764H8.37724C7.82495 10.7764 7.37724 11.2241 7.37724 11.7764V20.0032H4.79233C4.58363 20.0032 4.38257 19.9199 4.23364 19.7703C4.08455 19.6206 4 19.4165 4 19.2028ZM9.37724 20.0032H12.7542V12.7764H9.37724V20.0032Z" fill="white"/>
</svg>
