<svg width="22" height="24" viewBox="0 0 22 24" fill="none" xmlns="http://www.w3.org/2000/svg">
<path fill-rule="evenodd" clip-rule="evenodd" d="M17.8203 4.34375H17.2344V3.75781C17.2344 2.78855 16.4458 2 15.4766 2H3.75781C2.78855 2 2 2.78855 2 3.75781V17.8984C2 18.8677 2.78855 19.6562 3.75781 19.6562H4.34375V20.2422C4.34375 21.2114 5.1323 22 6.10156 22H17.8203C18.7896 22 19.5781 21.2114 19.5781 20.2422V6.10156C19.5781 5.1323 18.7896 4.34375 17.8203 4.34375ZM4.85859 6.5159C4.52656 6.84789 4.34375 7.2893 4.34375 7.75883V18.4844H3.75781C3.43473 18.4844 3.17188 18.2215 3.17188 17.8984V3.75781C3.17188 3.43473 3.43473 3.17188 3.75781 3.17188H15.4766C15.7996 3.17188 16.0625 3.43473 16.0625 3.75781V4.34375H7.75883C7.2893 4.34375 6.84789 4.5266 6.5159 4.85859L4.85859 6.5159ZM7.85938 5.51562V7.85938H5.51562V7.75883C5.51562 7.60234 5.57656 7.4552 5.68723 7.34453L7.34453 5.68723C7.4552 5.57656 7.60234 5.51562 7.75883 5.51562H7.85938ZM18.4062 20.2422C18.4062 20.5653 18.1434 20.8281 17.8203 20.8281H6.10156C5.77848 20.8281 5.51562 20.5653 5.51562 20.2422V9.03125H8.44531C8.76891 9.03125 9.03125 8.76891 9.03125 8.44531V5.51562H17.8203C18.1434 5.51562 18.4062 5.77848 18.4062 6.10156V20.2422ZM16.9611 10.2812H7.58605C7.26246 10.2812 7.00011 10.5436 7.00011 10.8672C7.00011 11.1908 7.26246 11.4531 7.58605 11.4531H16.9611C17.2846 11.4531 17.547 11.1908 17.547 10.8672C17.547 10.5436 17.2846 10.2812 16.9611 10.2812ZM7.58605 12.625H16.9611C17.2846 12.625 17.547 12.8873 17.547 13.2109C17.547 13.5345 17.2846 13.7969 16.9611 13.7969H7.58605C7.26246 13.7969 7.00011 13.5345 7.00011 13.2109C7.00011 12.8873 7.26246 12.625 7.58605 12.625ZM16.9611 14.9688H7.58605C7.26246 14.9688 7.00011 15.2311 7.00011 15.5547C7.00011 15.8783 7.26246 16.1407 7.58605 16.1407H16.9611C17.2846 16.1407 17.547 15.8783 17.547 15.5547C17.547 15.2311 17.2846 14.9688 16.9611 14.9688ZM7.58605 17.3126H16.9611C17.2846 17.3126 17.547 17.5749 17.547 17.8985C17.547 18.2221 17.2846 18.4844 16.9611 18.4844H7.58605C7.26246 18.4844 7.00011 18.2221 7.00011 17.8985C7.00011 17.5749 7.26246 17.3126 7.58605 17.3126Z" fill="#293B41"/>
</svg>
