<svg width="12" height="12" viewBox="0 0 12 12" fill="none" xmlns="http://www.w3.org/2000/svg">
<path d="M6 0C2.688 0 0 2.688 0 6C0 9.312 2.688 12 6 12C9.312 12 12 9.312 12 6C12 2.688 9.312 0 6 0ZM6 10.8C3.354 10.8 1.2 8.646 1.2 6C1.2 3.354 3.354 1.2 6 1.2C8.646 1.2 10.8 3.354 10.8 6C10.8 8.646 8.646 10.8 6 10.8ZM8.328 3.774L4.8 7.302L3.672 6.174C3.438 5.94 3.06 5.94 2.826 6.174C2.592 6.408 2.592 6.786 2.826 7.02L4.38 8.574C4.614 8.808 4.992 8.808 5.226 8.574L9.18 4.62C9.414 4.386 9.414 4.008 9.18 3.774C8.946 3.54 8.562 3.54 8.328 3.774Z" fill="#4F4F54"/>
</svg>
