<svg width="21" height="24" viewBox="0 0 21 24" fill="none" xmlns="http://www.w3.org/2000/svg">
<path fill-rule="evenodd" clip-rule="evenodd" d="M15.7146 3.85616H13.4315C13.3708 3.33437 12.9257 2.92808 12.3873 2.92808H11.7426C11.3842 2.35594 10.7543 2 10.0645 2C9.37502 2 8.74494 2.35594 8.38584 2.92808H7.74156C7.20313 2.92808 6.75803 3.33437 6.69739 3.85616H4.41628C3.08388 3.85616 2 4.93894 2 6.26966V19.5842C2 20.9149 3.08388 21.9976 4.41628 21.9976H15.7146C17.0468 21.9976 18.1309 20.9149 18.1309 19.5842V6.26966C18.1309 4.93879 17.047 3.85616 15.7146 3.85616ZM7.86345 4.09981H8.65879C8.94733 4.09981 9.20715 3.92863 9.32064 3.66362C9.44864 3.36473 9.74069 3.17173 10.0645 3.17173C10.3882 3.17173 10.6798 3.36443 10.807 3.66255C10.9203 3.92817 11.1803 4.09981 11.4693 4.09981H12.2654V5.71232H7.86345V4.09981ZM16.9578 19.5841C16.9578 20.2688 16.4001 20.8258 15.7146 20.8258H4.41628C3.73076 20.8258 3.17309 20.2688 3.17309 19.5841V6.26966C3.17309 5.58492 3.73076 5.02789 4.41628 5.02789H6.69036V5.83422C6.69036 6.41307 7.16189 6.88405 7.74156 6.88405H12.3873C12.967 6.88405 13.4385 6.41307 13.4385 5.83422V5.02789H15.7146C16.4001 5.02789 16.9578 5.58492 16.9578 6.26966V19.5841ZM8.84883 10.2686H15.0546C15.3786 10.2686 15.6411 10.0062 15.6411 9.68276C15.6411 9.35916 15.3786 9.09689 15.0546 9.09689H8.84883C8.52486 9.09689 8.26229 9.35916 8.26229 9.68276C8.26229 10.0062 8.52486 10.2686 8.84883 10.2686ZM5.61114 10.9608C5.45197 10.9608 5.29266 10.9004 5.17138 10.7793L4.60103 10.2096C4.37206 9.98074 4.37206 9.60984 4.60103 9.38099C4.83015 9.15229 5.20147 9.15229 5.43059 9.38099L5.61114 9.56133L6.59787 8.57588C6.82684 8.34702 7.19832 8.34702 7.42729 8.57588C7.6564 8.80458 7.6564 9.17563 7.42729 9.40433L6.05089 10.7793C5.92961 10.9004 5.7703 10.9608 5.61114 10.9608ZM8.83558 14.4292H15.0415C15.3653 14.4292 15.628 14.1668 15.628 13.8434C15.628 13.5198 15.3653 13.2575 15.0415 13.2575H8.83558C8.51176 13.2575 8.24903 13.5198 8.24903 13.8434C8.24903 14.1668 8.51176 14.4292 8.83558 14.4292ZM5.59776 15.1217C5.43158 15.1217 5.27547 15.0572 5.15801 14.9399L4.58765 14.3702C4.35854 14.1413 4.35854 13.7704 4.58765 13.5416C4.81677 13.3129 5.1881 13.3129 5.41707 13.5416L5.59776 13.7219L6.5845 12.7365C6.81347 12.5076 7.18495 12.5076 7.41391 12.7365C7.64303 12.9652 7.64303 13.3362 7.41391 13.5649L6.03737 14.9399C5.92067 15.0569 5.76441 15.1216 5.59822 15.1217H5.59776ZM15.1285 17.3767H8.92277C8.5988 17.3767 8.33623 17.639 8.33623 17.9626C8.33623 18.2862 8.5988 18.5484 8.92277 18.5484H15.1285C15.4525 18.5484 15.7151 18.2862 15.7151 17.9626C15.7151 17.639 15.4525 17.3767 15.1285 17.3767ZM5.68496 17.8413L6.6717 16.8557C6.90066 16.6268 7.27214 16.6268 7.50111 16.8557C7.73022 17.0845 7.73022 17.4554 7.50111 17.6843L6.12456 19.0591C6.00343 19.1802 5.84412 19.2408 5.68496 19.2408C5.52564 19.2408 5.36648 19.1802 5.2452 19.0591L4.67485 18.4896C4.44573 18.2607 4.44573 17.8896 4.67485 17.6609C4.90397 17.4321 5.27514 17.4321 5.50426 17.6609L5.68496 17.8413Z" fill="#293B41"/>
</svg>
