<svg width="23" height="25" viewBox="0 0 23 25" fill="none" xmlns="http://www.w3.org/2000/svg">
<path fill-rule="evenodd" clip-rule="evenodd" d="M3.73059 2.28801C3.91581 2.1954 4.18942 2.09437 4.34097 2.06491C4.56828 2.01439 5.75957 2.00176 11.3919 2.00176L12.6565 2.00092C17.9643 1.99704 18.4779 1.99667 18.9035 2.19007C18.9491 2.21079 18.9937 2.23373 19.0431 2.25914C19.0784 2.2773 19.1161 2.29671 19.1584 2.31747C19.4825 2.47743 19.6214 2.57846 19.8993 2.8605C20.1855 3.14253 20.2781 3.27303 20.4339 3.60137L20.4641 3.66376L20.4641 3.66392L20.4643 3.66422L20.4643 3.66428L20.4644 3.66444C20.5097 3.75783 20.548 3.83685 20.5804 3.91823C20.7582 4.36483 20.7582 4.88224 20.758 8.23241L20.758 8.55173C20.758 12.2813 20.7538 12.4666 20.678 12.6055C20.6359 12.6855 20.5349 12.7907 20.4591 12.837C20.3202 12.917 20.2276 12.9212 18.2239 12.9338L16.1276 12.9464V17.358V21.7695L16.0307 21.9127C15.9802 21.9927 15.8708 22.0895 15.7908 22.1274C15.6519 22.1989 15.2478 22.2031 9.11874 22.2031C2.83397 22.2031 2.58561 22.1989 2.44669 22.1231C2.36671 22.081 2.26148 21.98 2.21517 21.9043C2.13098 21.7611 2.13098 21.6854 2.13098 13.0896C2.13098 4.8137 2.13519 4.40538 2.20675 4.14439C2.44248 3.31091 2.96867 2.66686 3.73059 2.28801ZM15.3488 3.45404C15.4288 3.31933 15.4961 3.20147 15.4961 3.19305C15.4961 3.15937 4.73245 3.18884 4.58091 3.22252C4.1347 3.32775 3.68849 3.69398 3.47381 4.12335L3.35173 4.37592L3.33911 12.6981L3.33069 21.0245H9.13979H14.9489L14.9573 12.6981L14.9699 4.37592L15.0836 4.03916C15.1467 3.85394 15.2646 3.59295 15.3488 3.45404ZM19.3394 4.05179C19.1879 3.77396 18.8721 3.49192 18.548 3.33617C18.2449 3.19726 17.7608 3.14253 17.462 3.21831C17.0368 3.32775 16.5695 3.68135 16.3675 4.05179L16.3579 4.06934L16.3579 4.06936C16.3281 4.1236 16.3022 4.17085 16.2797 4.21964C16.1275 4.54897 16.1275 4.94866 16.1275 8.04618V8.04624L16.1276 8.23602V11.7215H17.8534H19.5793V8.23602L19.5793 8.04624C19.5794 4.94866 19.5794 4.54897 19.4272 4.21964C19.4046 4.17087 19.3788 4.12365 19.3491 4.06943L19.349 4.06934L19.3394 4.05179ZM11.1309 5.08309C11.3456 4.87261 11.5771 4.67056 11.6444 4.63267C12.0738 4.40957 12.5747 4.79263 12.4863 5.27252C12.4653 5.3988 12.36 5.52509 11.977 5.91657L11.4929 6.40487L11.6276 6.80056C11.8886 7.57511 11.8381 8.33703 11.4761 9.09053C11.093 9.88612 10.3858 10.467 9.51864 10.6986C9.15241 10.7954 8.41575 10.7954 8.04532 10.6986C7.89377 10.6607 7.61174 10.547 7.41389 10.4502C6.92138 10.2103 6.36994 9.66302 6.11737 9.17051C5.86059 8.66958 5.75535 8.1939 5.78482 7.63825C5.8227 6.83003 6.09211 6.22386 6.67723 5.63874C7.25814 5.05783 7.94008 4.77579 8.78198 4.77579C9.44708 4.77579 10.0406 4.96101 10.5626 5.33566L10.7436 5.46615L11.1309 5.08309ZM9.91012 6.29963L9.58178 6.13967C9.28291 5.99234 9.21977 5.9755 8.84933 5.96708C8.25579 5.94604 7.83905 6.11862 7.43915 6.53957C6.45413 7.59616 7.05609 9.31784 8.49994 9.57462C9.58178 9.76826 10.6089 8.88426 10.6131 7.76454L10.6132 7.72085C10.6134 7.55145 10.6136 7.44823 10.5717 7.42667C10.5064 7.39305 10.3388 7.55812 9.90982 7.98067L9.90982 7.98068L9.90981 7.98068L9.9098 7.98069L9.9098 7.98069L9.90978 7.98071L9.83435 8.05499L9.80749 8.08155C9.08081 8.80017 9.077 8.80393 8.76093 8.77481C8.59676 8.76219 8.51257 8.70325 8.13372 8.33703C7.6412 7.86135 7.54018 7.71402 7.54018 7.47408C7.54018 7.1289 7.77591 6.88054 8.10846 6.88054C8.3063 6.88054 8.39891 6.93106 8.64727 7.16679L8.84512 7.36463L9.37552 6.83003L9.91012 6.29963ZM4.84611 13.1864C4.65247 13.2832 4.50935 13.5021 4.50935 13.7084C4.50935 14.0578 4.74929 14.2893 5.11551 14.2893C5.29652 14.2893 5.33862 14.2724 5.47753 14.1293C5.688 13.9188 5.72589 13.7336 5.60802 13.4726C5.54067 13.3169 5.48595 13.2579 5.34283 13.1948C5.11972 13.0938 5.03132 13.0896 4.84611 13.1864ZM6.86666 13.7252C6.86666 13.4726 7.04346 13.2243 7.27077 13.1527C7.33813 13.1317 8.73989 13.119 10.3816 13.1232L13.3703 13.1317L13.5135 13.2327C13.766 13.4137 13.8334 13.721 13.6818 13.9946C13.6721 14.0117 13.6636 14.0279 13.6555 14.0431L13.6555 14.0431C13.6374 14.0772 13.6217 14.1067 13.6011 14.132C13.4725 14.2901 13.1496 14.29 10.814 14.2894L10.3184 14.2893C7.34234 14.2893 7.27498 14.2893 7.14028 14.2051C6.98874 14.1125 6.86666 13.8978 6.86666 13.7252ZM4.77454 15.5942C4.29466 15.8846 4.50934 16.6592 5.06921 16.6592C5.3302 16.6592 5.5112 16.5498 5.61223 16.3224C5.72589 16.0657 5.688 15.8804 5.47753 15.67C5.33861 15.5268 5.29652 15.51 5.11551 15.51C4.98502 15.51 4.85873 15.5395 4.77454 15.5942ZM6.86666 16.0741C6.86666 15.9057 6.99295 15.6784 7.13607 15.59C7.26236 15.5142 7.40548 15.51 10.3184 15.51C13.2314 15.51 13.3745 15.5142 13.5008 15.59C13.8628 15.8089 13.8418 16.3856 13.4629 16.5919C13.3367 16.6634 13.1178 16.6676 10.2974 16.6676H7.26656L7.12344 16.5666C6.9719 16.4572 6.86666 16.2551 6.86666 16.0741ZM4.77454 17.9515C4.35359 18.2083 4.45462 18.865 4.93871 19.0123C5.40597 19.1512 5.83955 18.6377 5.61644 18.2041C5.45648 17.8926 5.06079 17.7747 4.77454 17.9515ZM6.95926 18.7514C6.77404 18.4735 6.90875 18.04 7.22446 17.9053C7.27076 17.8884 8.68937 17.8758 10.3732 17.88L13.4419 17.8884L13.5808 18.0442C13.6608 18.1284 13.7366 18.2504 13.7534 18.3094C13.7913 18.4609 13.7408 18.684 13.6355 18.8145C13.6114 18.8452 13.5916 18.8718 13.5683 18.8948C13.4124 19.0492 13.1005 19.046 10.31 19.046C7.56725 19.046 7.21124 19.0547 7.05151 18.882C7.0188 18.8466 6.99432 18.8036 6.95926 18.7514Z" fill="white"/>
</svg>
