<svg width="140" height="140" viewBox="0 0 368 198" fill="none" xmlns="http://www.w3.org/2000/svg">
<g clip-path="url(#clip0_130_234)">
<path d="M222.682 1.17936C213.838 -1.45921 202.891 2.52555 197.606 10.3335C193.831 15.8799 192.536 23.4187 194.316 29.2881C194.748 30.742 195.125 31.9805 195.125 32.0344C195.125 32.2659 171.165 48.1835 163.933 52.8467C166.867 54.5052 169.542 56.4169 171.963 58.5708C174.929 56.5838 179.367 53.6167 184.286 50.3428L200.14 39.7885L202.082 41.2963C211.519 48.7273 224.677 47.9196 233.036 39.4116C245.17 27.188 239.507 6.29494 222.682 1.17936ZM229.962 25.0341C228.991 32.0882 223.437 36.9884 216.426 37.0423C204.185 37.0423 198.145 22.8263 206.612 13.9952C210.764 9.68737 216.966 8.66426 222.574 11.4105C227.374 13.726 230.717 19.8108 229.962 25.0341ZM108.572 44.4195L102.208 36.4499L103.287 34.4576C105.552 30.4189 106.307 26.9727 106.037 21.9648C105.821 17.8185 105.552 16.6876 103.826 13.2413C101.453 8.39501 97.8401 4.73334 93.472 2.57941C88.0793 -0.113 83.118 -0.651495 77.4556 0.748559C72.9797 1.82552 70.1754 3.38713 66.778 6.83341C54.2129 19.3801 59.6596 40.4347 76.7546 45.3887C81.2845 46.7349 88.0254 46.3042 92.3396 44.3656C94.9281 43.2348 95.683 43.0733 96.1684 43.6118C97.3063 44.8556 102.704 51.6405 106.231 56.2015C108.146 54.7637 110.195 53.4606 112.384 52.2867C112.972 51.969 113.565 51.6675 114.164 51.3767C112.848 49.7558 110.783 47.1711 108.572 44.4195ZM89.3196 35.6422C80.3138 40.1116 69.4744 33.4883 69.4744 23.5264C69.4744 18.8954 72.8179 13.4567 77.0242 11.1951C79.9363 9.63352 85.1672 9.52582 88.6725 10.9259C89.5893 11.3028 91.2071 12.3798 92.3396 13.349C99.5658 19.7031 97.948 31.3344 89.3196 35.6422ZM43.4275 162.724C43.352 162.272 75.7084 135.681 96.2924 119.064C95.7478 118.283 95.2301 117.475 94.7339 116.651C93.5745 114.729 92.5768 112.737 91.7356 110.68C75.3147 124.271 48.3618 146.295 37.2258 155.131C36.7944 155.508 35.5541 155.185 33.2891 154.162C23.7979 149.908 13.9292 151.577 7.02655 158.578C-2.03324 167.732 -2.3568 181.194 6.21764 190.51C15.8706 201.01 32.7499 200.418 41.3782 189.271C44.7217 184.909 45.8542 181.786 46.1778 176.24C46.3935 171.986 46.2317 170.909 44.9914 167.355C44.1825 165.147 43.4814 163.047 43.4275 162.724ZM14.0371 184.425C9.2915 179.902 8.64437 173.009 12.3114 167.14C16.0324 161.27 23.8519 159.439 30.2153 162.886C34.6913 165.309 37.118 169.509 37.118 174.732C37.0641 186.848 22.8273 192.825 14.0371 184.425ZM73.7886 78.5054C47.4181 78.5054 45.7464 78.4515 45.7464 77.5361C45.7464 75.4899 42.4029 69.7281 39.6526 67.0357C29.0828 56.7507 12.2575 58.5816 4.38411 70.859C-2.95 82.2748 1.52596 97.9446 13.8214 103.653C25.0922 108.93 38.3583 104.406 43.8589 93.4752C44.8835 91.3751 45.7464 89.2212 45.7464 88.6827C45.7464 87.7134 46.771 87.6596 73.7886 87.6596H88.6078C88.9259 84.4826 89.5353 81.4347 90.4467 78.5054H73.7886ZM35.7159 89.1673C31.4017 97.7831 19.7534 99.3985 13.39 92.1828C10.9632 89.3827 10.0465 86.8519 10.0465 82.9748C9.99255 73.6052 19.1063 67.1434 28.0043 70.1589C35.7159 72.7975 39.3829 81.844 35.7159 89.1673Z" fill="#BBCDD7"/>
<path d="M180.549 68.926C178.176 64.9951 175.318 61.5488 171.92 58.5333C169.494 56.3794 166.797 54.4947 163.885 52.8254C163.562 52.61 163.238 52.4485 162.914 52.2869C155.419 48.2483 147.006 46.2559 137.676 46.2559C129.048 46.2559 121.229 47.9791 114.164 51.3715C113.571 51.6407 112.978 51.9638 112.385 52.2869C110.174 53.4716 108.124 54.7639 106.237 56.2178C101.599 59.718 97.7703 63.972 94.7504 68.9799C92.9168 71.9954 91.5147 75.1724 90.4362 78.5649C89.5194 81.4727 88.9262 84.542 88.6026 87.7191C88.4409 89.3884 88.333 91.1115 88.333 92.8347C88.333 99.2426 89.4655 105.22 91.7304 110.712C92.5933 112.759 93.564 114.751 94.7504 116.689C95.2357 117.497 95.775 118.305 96.3142 119.113C100.413 125.036 105.752 129.775 112.385 133.382C119.88 137.421 128.347 139.413 137.676 139.413C147.006 139.413 155.472 137.421 162.914 133.382C170.356 129.344 176.288 123.797 180.549 116.743C183.191 112.435 184.971 107.804 185.995 102.797C186.642 99.7811 186.966 96.6579 186.966 93.3731C186.966 93.2116 186.966 93.05 186.966 92.8347C187.02 83.9497 184.863 76.034 180.549 68.926ZM164.748 101.504C164.155 103.712 163.292 105.758 162.213 107.751C159.787 112.112 156.389 115.559 152.129 117.982C147.815 120.405 143.015 121.643 137.676 121.643C132.338 121.643 127.538 120.405 123.224 117.982C118.91 115.559 115.566 112.112 113.14 107.751C112.87 107.266 112.654 106.835 112.385 106.351C110.443 102.312 109.419 97.8425 109.419 92.8347C109.419 89.2807 109.904 85.9421 110.929 82.8189C111.468 81.0957 112.223 79.4803 113.086 77.9187C115.512 73.557 118.91 70.1645 123.17 67.6875C127.484 65.2644 132.284 64.0258 137.623 64.0258C142.961 64.0258 147.761 65.2644 152.075 67.6875C156.389 70.1107 159.733 73.557 162.159 77.9187C163.723 80.665 164.748 83.6805 165.341 86.9652C165.665 88.8499 165.827 90.7884 165.827 92.8347C165.88 95.904 165.503 98.758 164.748 101.504Z" fill="#23398A"/>
<path d="M250.385 47.7635H229.784L206.38 100.158L202.605 108.558L189.555 137.744H210.964L218.945 118.466H260.793L264.406 127.19L268.289 136.613L268.774 137.798H290.668L250.385 47.7635ZM225.632 102.689L239.923 68.2258L251.841 97.0346L254.213 102.689H225.632Z" fill="#23398A"/>
<path d="M368 111.466C368 116.635 366.544 121.32 363.686 125.574C360.774 129.828 356.514 133.167 350.743 135.698C344.973 138.175 338.016 139.413 329.766 139.413C322.647 139.413 315.744 138.444 309.111 136.505C302.424 134.567 297.086 132.09 293.095 128.967L300.159 113.297C304.042 116.151 308.626 118.412 313.965 120.135C319.304 121.859 324.589 122.72 329.927 122.72C335.859 122.72 340.227 121.859 343.086 120.082C345.944 118.305 347.346 115.989 347.346 113.081C347.346 110.927 346.537 109.15 344.865 107.75C343.193 106.35 341.036 105.22 338.394 104.358C335.751 103.496 332.246 102.581 327.77 101.504C320.868 99.8885 315.259 98.2731 310.891 96.6038C306.523 94.9883 302.748 92.3498 299.62 88.742C296.492 85.1341 294.929 80.3416 294.929 74.3106C294.929 69.0873 296.331 64.3487 299.189 60.0947C302.047 55.8407 306.307 52.5021 312.023 50.0251C317.74 47.5481 324.696 46.3095 332.947 46.3095C338.718 46.3095 344.326 47.0096 349.827 48.3558C355.327 49.702 360.127 51.6944 364.225 54.2791L357.808 70.1105C349.449 65.4257 341.144 63.0563 332.839 63.0563C327.015 63.0563 322.701 64.0256 319.897 65.8565C317.093 67.7411 315.691 70.2182 315.691 73.3414C315.691 76.4107 317.308 78.7262 320.544 80.2339C323.78 81.7417 328.687 83.1956 335.266 84.6495C342.169 86.2649 347.777 87.8804 352.145 89.5497C356.514 91.1651 360.288 93.7498 363.416 97.25C366.382 100.696 368 105.435 368 111.466Z" fill="#23398A"/>
</g>
<defs>
<clipPath id="clip0_130_234">
<rect width="368" height="198" fill="white"/>
</clipPath>
</defs>
</svg>
