<svg width="24" height="24" viewBox="0 0 24 24" fill="none" xmlns="http://www.w3.org/2000/svg">
<path fill-rule="evenodd" clip-rule="evenodd" d="M19.2045 2.97702C19.2045 2.42474 18.7567 1.97702 18.2045 1.97702C17.6522 1.97702 17.2045 2.42474 17.2045 2.97702V15.5497C15.8585 15.9719 14.8776 17.2236 14.8776 18.7101C14.8776 20.5456 16.3731 22.023 18.2049 22.023C20.0366 22.023 21.5321 20.5456 21.5321 18.7101C21.5321 17.2233 20.5509 15.9715 19.2045 15.5495V2.97702ZM11.2359 8.92275V2.97708C11.2359 2.42479 11.6836 1.97708 12.2359 1.97708C12.7882 1.97708 13.2359 2.42479 13.2359 2.97708V9.06929C14.48 9.55897 15.3641 10.7663 15.3641 12.1852C15.3641 13.6042 14.48 14.8115 13.2359 15.3012V21.0229C13.2359 21.5752 12.7882 22.0229 12.2359 22.0229C11.6836 22.0229 11.2359 21.5752 11.2359 21.0229V15.4477C9.74953 15.1036 8.63602 13.7777 8.63602 12.1852C8.63602 10.5928 9.74952 9.26683 11.2359 8.92275ZM10.636 12.1852C10.636 12.9246 11.2408 13.5346 12 13.5346C12.7592 13.5346 13.3641 12.9246 13.3641 12.1852C13.3641 11.4458 12.7592 10.8358 12 10.8358C11.2408 10.8358 10.636 11.4458 10.636 12.1852ZM19.5321 18.7101C19.5321 17.9908 18.9437 17.3972 18.2049 17.3972C17.466 17.3972 16.8776 17.9908 16.8776 18.7101C16.8776 19.4293 17.466 20.023 18.2049 20.023C18.9437 20.023 19.5321 19.4293 19.5321 18.7101ZM4.46786 5.29009C4.46786 6.00933 5.05625 6.60297 5.79515 6.60297C6.53406 6.60297 7.12244 6.00933 7.12244 5.29009C7.12244 4.57086 6.53406 3.97722 5.79515 3.97722C5.05625 3.97722 4.46786 4.57086 4.46786 5.29009ZM4.79554 8.45069C3.44915 8.02872 2.46786 6.77689 2.46786 5.29009C2.46786 3.4546 3.96341 1.97722 5.79515 1.97722C7.6269 1.97722 9.12244 3.4546 9.12244 5.29009C9.12244 6.7766 8.14153 8.02823 6.79554 8.45044L6.79554 21.0229C6.79554 21.5752 6.34783 22.0229 5.79554 22.0229C5.24326 22.0229 4.79554 21.5752 4.79554 21.0229L4.79554 8.45069Z" fill="white"/>
</svg>
